# xmcd
#
# Track frame offsets:
#	150
#	16046
#	34794
#	53747
#	69313
#	83207
#	94253
#	109715
#	121069
#	143003
#	153751
#	203826
#
# Disc length: 3083 seconds
# Revision: 0
# Processed by: cddbd v1.5.2PL0 Copyright (c) Steve Scherf et al.
# Submitted via: dBpowerAMP V12.0
#
DISCID=8c0c090c
DTITLE=Sonny Terry and Brownie McGhee - American Blues Legends [CD2 of 2)
DYEAR=2009
DGENRE=Blues
TTITLE0=I Was Born With The Blues
TTITLE1=I'm A Stranger Here
TTITLE2=I'm Gonna Get On My Feet
TTITLE3=I've Been Treated Wrong
TTITLE4=Down By The Riverside
TTITLE5=Pick A Bale Of Cotton
TTITLE6=Trouble In Mind
TTITLE7=Cornbread, Peas And Black Molasses
TTITLE8=Blues All Round My Head
TTITLE9=What A Beautiful City
TTITLE10=John Henry
TTITLE11=Blowin' The Fuse
EXTD=
EXTT0=
EXTT1=
EXTT2=
EXTT3=
EXTT4=
EXTT5=
EXTT6=
EXTT7=
EXTT8=
EXTT9=
EXTT10=
EXTT11=
PLAYORDER=
